<svg width="165" height="44" viewBox="0 0 165 44" fill="none" xmlns="http://www.w3.org/2000/svg">
    <path d="M28.0898 43H0.636719V3.78906H8.48438V35.1523H28.0898V43ZM42.2812 35.8359C42.5729 35.9271 42.8646 35.9909 43.1562 36.0273C43.4479 36.0456 43.7396 36.0547 44.0312 36.0547C44.7604 36.0547 45.4622 35.9544 46.1367 35.7539C46.8112 35.5534 47.4401 35.2708 48.0234 34.9062C48.625 34.5234 49.1536 34.0677 49.6094 33.5391C50.0833 32.9922 50.4661 32.3906 50.7578 31.7344L56.2266 37.2305C55.5339 38.2148 54.7318 39.099 53.8203 39.8828C52.9271 40.6667 51.9518 41.332 50.8945 41.8789C49.8555 42.4258 48.7526 42.8359 47.5859 43.1094C46.4375 43.401 45.2526 43.5469 44.0312 43.5469C41.9714 43.5469 40.0299 43.1641 38.207 42.3984C36.4023 41.6328 34.8164 40.5664 33.4492 39.1992C32.1003 37.832 31.0339 36.2096 30.25 34.332C29.4661 32.4362 29.0742 30.3581 29.0742 28.0977C29.0742 25.7826 29.4661 23.668 30.25 21.7539C31.0339 19.8398 32.1003 18.2083 33.4492 16.8594C34.8164 15.5104 36.4023 14.4622 38.207 13.7148C40.0299 12.9674 41.9714 12.5938 44.0312 12.5938C45.2526 12.5938 46.4466 12.7396 47.6133 13.0312C48.7799 13.3229 49.8828 13.7422 50.9219 14.2891C51.9792 14.8359 52.9635 15.5104 53.875 16.3125C54.7865 17.0964 55.5885 17.9805 56.2812 18.9648L42.2812 35.8359ZM46.1094 20.4414C45.763 20.3138 45.4167 20.2318 45.0703 20.1953C44.7422 20.1589 44.3958 20.1406 44.0312 20.1406C43.0104 20.1406 42.0443 20.332 41.1328 20.7148C40.2396 21.0794 39.4557 21.6081 38.7812 22.3008C38.125 22.9935 37.6055 23.832 37.2227 24.8164C36.8398 25.7826 36.6484 26.8763 36.6484 28.0977C36.6484 28.3711 36.6576 28.681 36.6758 29.0273C36.7122 29.3737 36.7578 29.7292 36.8125 30.0938C36.8854 30.4401 36.9674 30.7773 37.0586 31.1055C37.1497 31.4336 37.2682 31.7253 37.4141 31.9805L46.1094 20.4414ZM68.8594 5.75781C68.8594 6.45052 68.7227 7.09766 68.4492 7.69922C68.194 8.30078 67.8385 8.82943 67.3828 9.28516C66.9271 9.72266 66.3893 10.0781 65.7695 10.3516C65.168 10.6068 64.5208 10.7344 63.8281 10.7344C63.1354 10.7344 62.4792 10.6068 61.8594 10.3516C61.2578 10.0781 60.7292 9.72266 60.2734 9.28516C59.8359 8.82943 59.4805 8.30078 59.207 7.69922C58.9518 7.09766 58.8242 6.45052 58.8242 5.75781C58.8242 5.08333 58.9518 4.44531 59.207 3.84375C59.4805 3.22396 59.8359 2.69531 60.2734 2.25781C60.7292 1.80208 61.2578 1.44661 61.8594 1.19141C62.4792 0.917969 63.1354 0.78125 63.8281 0.78125C64.5208 0.78125 65.168 0.917969 65.7695 1.19141C66.3893 1.44661 66.9271 1.80208 67.3828 2.25781C67.8385 2.69531 68.194 3.22396 68.4492 3.84375C68.7227 4.44531 68.8594 5.08333 68.8594 5.75781ZM67.5742 43H60.0547V13.7148H67.5742V43ZM80.8086 43H73.2891V2.06641H80.8086V43ZM114.879 43H113.074L110.176 38.9805C109.465 39.6185 108.708 40.2201 107.906 40.7852C107.122 41.332 106.293 41.8151 105.418 42.2344C104.543 42.6354 103.641 42.9544 102.711 43.1914C101.799 43.4284 100.87 43.5469 99.9219 43.5469C97.862 43.5469 95.9206 43.2005 94.0977 42.5078C92.293 41.8151 90.707 40.8125 89.3398 39.5C87.9909 38.1693 86.9245 36.5469 86.1406 34.6328C85.3568 32.7188 84.9648 30.5404 84.9648 28.0977C84.9648 25.819 85.3568 23.7318 86.1406 21.8359C86.9245 19.9219 87.9909 18.2812 89.3398 16.9141C90.707 15.5469 92.293 14.4896 94.0977 13.7422C95.9206 12.9766 97.862 12.5938 99.9219 12.5938C100.87 12.5938 101.809 12.7122 102.738 12.9492C103.668 13.1862 104.57 13.5143 105.445 13.9336C106.32 14.3529 107.15 14.8451 107.934 15.4102C108.736 15.9753 109.483 16.5859 110.176 17.2422L113.074 13.7695H114.879V43ZM107.359 28.0977C107.359 27.0768 107.159 26.0924 106.758 25.1445C106.375 24.1784 105.846 23.3307 105.172 22.6016C104.497 21.8542 103.704 21.2617 102.793 20.8242C101.9 20.3685 100.943 20.1406 99.9219 20.1406C98.901 20.1406 97.9349 20.3138 97.0234 20.6602C96.1302 21.0065 95.3464 21.5169 94.6719 22.1914C94.0156 22.8659 93.4961 23.7044 93.1133 24.707C92.7305 25.6914 92.5391 26.8216 92.5391 28.0977C92.5391 29.3737 92.7305 30.513 93.1133 31.5156C93.4961 32.5 94.0156 33.3294 94.6719 34.0039C95.3464 34.6784 96.1302 35.1888 97.0234 35.5352C97.9349 35.8815 98.901 36.0547 99.9219 36.0547C100.943 36.0547 101.9 35.8359 102.793 35.3984C103.704 34.9427 104.497 34.3503 105.172 33.6211C105.846 32.8737 106.375 32.026 106.758 31.0781C107.159 30.112 107.359 29.1185 107.359 28.0977ZM128.059 43H120.594V13.7148H122.398L124.859 17.1875C126.062 16.0938 127.43 15.2552 128.961 14.6719C130.492 14.0703 132.078 13.7695 133.719 13.7695H140.309V21.207H133.719C132.935 21.207 132.197 21.3529 131.504 21.6445C130.811 21.9362 130.21 22.3372 129.699 22.8477C129.189 23.3581 128.788 23.9596 128.496 24.6523C128.204 25.3451 128.059 26.0833 128.059 26.8672V43ZM158.465 43C156.66 43 154.965 42.6628 153.379 41.9883C151.793 41.2956 150.398 40.3568 149.195 39.1719C148.01 37.9688 147.072 36.5742 146.379 34.9883C145.704 33.4023 145.367 31.707 145.367 29.9023V21.207H141.73V13.7695H145.367V2.06641H152.805V13.7695H164.125V21.207H152.805V29.9023C152.805 30.6862 152.951 31.4245 153.242 32.1172C153.534 32.7917 153.935 33.3841 154.445 33.8945C154.956 34.4049 155.557 34.8151 156.25 35.125C156.943 35.4167 157.681 35.5625 158.465 35.5625H164.125V43H158.465Z" fill="white"/>
</svg>